<svg xmlns="http://www.w3.org/2000/svg" width="523.358" height="378.458" viewBox="0 0 523.358 378.458">
  <g id="Grupo_57969" data-name="Grupo 57969" transform="translate(-538.5 -392)">
    <g id="docker" transform="translate(728 392)">
      <path id="Trazado_103446" data-name="Trazado 103446" d="M144.031,72.016a74.382,74.382,0,1,1-.012-1.226C144.028,71.2,144.031,71.607,144.031,72.016Z" fill="#1565c0"/>
      <g id="Grupo_57775" data-name="Grupo 57775" transform="translate(15.288 28.627)">
        <path id="Trazado_103447" data-name="Trazado 103447" d="M183.078,188.953c-6.149,7.49-18.2,6.9-18.2,6.9-7.431,32.013-52.307,48.306-83.465,40.3S54.546,191,54.546,191H145.73c7.525,0,8.1-2.287,8.1-2.287-6.67-15.817,3.621-24.3,3.621-24.3,8,1.432,10,15.15,10,15.15a26.706,26.706,0,0,1,15.073,1.573A71.4,71.4,0,0,1,183.078,188.953Z" transform="translate(-54.347 -146.79)" fill="#f2f2f2"/>
        <rect id="Rectángulo_7084" data-name="Rectángulo 7084" width="12.769" height="11.624" transform="translate(9.917 29.726)" fill="#f2f2f2"/>
        <rect id="Rectángulo_7085" data-name="Rectángulo 7085" width="12.769" height="11.624" transform="translate(25.963 29.726)" fill="#f2f2f2"/>
        <rect id="Rectángulo_7086" data-name="Rectángulo 7086" width="12.769" height="11.624" transform="translate(74.096 29.726)" fill="#f2f2f2"/>
        <rect id="Rectángulo_7087" data-name="Rectángulo 7087" width="12.769" height="11.624" transform="translate(58.053 29.726)" fill="#f2f2f2"/>
        <rect id="Rectángulo_7088" data-name="Rectángulo 7088" width="12.769" height="11.624" transform="translate(58.053)" fill="#f2f2f2"/>
        <rect id="Rectángulo_7089" data-name="Rectángulo 7089" width="12.769" height="11.624" transform="translate(42.007 29.726)" fill="#f2f2f2"/>
        <rect id="Rectángulo_7090" data-name="Rectángulo 7090" width="12.769" height="11.624" transform="translate(25.963 14.862)" fill="#f2f2f2"/>
        <rect id="Rectángulo_7091" data-name="Rectángulo 7091" width="12.769" height="11.624" transform="translate(58.053 14.862)" fill="#f2f2f2"/>
        <rect id="Rectángulo_7092" data-name="Rectángulo 7092" width="12.769" height="11.624" transform="translate(42.007 14.862)" fill="#f2f2f2"/>
      </g>
    </g>
    <g id="Elipse_1554" data-name="Elipse 1554" transform="translate(797 536)" fill="#fff" stroke="#1565c0" stroke-width="2">
      <circle cx="6" cy="6" r="6" stroke="none"/>
      <circle cx="6" cy="6" r="5" fill="none"/>
    </g>
    <path id="Trazado_103453" data-name="Trazado 103453" d="M-10477.3-11114.5l213.3-37.5,177.559,37.5" transform="translate(11067 11700)" fill="none" stroke="#1565c0" stroke-width="2"/>
    <g id="Grupo_57789" data-name="Grupo 57789" transform="translate(0 37)">
      <g id="Grupo_57748" data-name="Grupo 57748" transform="translate(540 533.675)">
        <g id="Grupo_57747" data-name="Grupo 57747" transform="translate(0 27.367)">
          <rect id="Rectángulo_7017" data-name="Rectángulo 7017" width="86.976" height="170.916" fill="#4dd0e1" stroke="#21214b" stroke-width="3"/>
          <rect id="Rectángulo_7018" data-name="Rectángulo 7018" width="65.301" height="6.936" transform="translate(9.908 36.351)" fill="#fff"/>
          <rect id="Rectángulo_7019" data-name="Rectángulo 7019" width="43.22" height="6.936" transform="translate(9.908 51.708)" fill="#fff"/>
          <rect id="Rectángulo_7020" data-name="Rectángulo 7020" width="15.663" height="6.936" transform="translate(59.547 51.708)" fill="#ffca28"/>
          <rect id="Rectángulo_7021" data-name="Rectángulo 7021" width="40.467" height="6.936" transform="translate(34.743 67.066)" fill="#ffca28"/>
          <rect id="Rectángulo_7022" data-name="Rectángulo 7022" width="18.952" height="6.936" transform="translate(9.908 67.066)" fill="#fff"/>
          <rect id="Rectángulo_7023" data-name="Rectángulo 7023" width="34.518" height="6.936" transform="translate(9.908 82.424)" fill="#fff"/>
          <rect id="Rectángulo_7024" data-name="Rectángulo 7024" width="25.468" height="6.936" transform="translate(49.742 82.424)" fill="#ffca28"/>
          <rect id="Rectángulo_7025" data-name="Rectángulo 7025" width="46.35" height="6.936" transform="translate(28.86 97.781)" fill="#ffca28"/>
          <rect id="Rectángulo_7026" data-name="Rectángulo 7026" width="14.011" height="6.936" transform="translate(9.908 97.781)" fill="#fff"/>
          <rect id="Rectángulo_7027" data-name="Rectángulo 7027" width="28.022" height="6.936" transform="translate(9.908 113.139)" fill="#fff"/>
          <rect id="Rectángulo_7028" data-name="Rectángulo 7028" width="32.651" height="6.936" transform="translate(42.559 113.139)" fill="#ffca28"/>
          <g id="Grupo_57743" data-name="Grupo 57743" transform="translate(45.813 146.089)">
            <g id="Grupo_57740" data-name="Grupo 57740" transform="translate(20.32 5.261)">
              <path id="Trazado_103414" data-name="Trazado 103414" d="M568.144,254.731v1.952L561,259.4v-1.877l5-1.816-5-1.832v-1.863Z" transform="translate(-560.996 -252.013)" fill="#21214b"/>
            </g>
            <g id="Grupo_57741" data-name="Grupo 57741" transform="translate(0 5.261)">
              <path id="Trazado_103415" data-name="Trazado 103415" d="M546.979,252.013v1.863l-5,1.832,5,1.816V259.4l-7.148-2.718v-1.952Z" transform="translate(-539.831 -252.013)" fill="#21214b"/>
            </g>
            <g id="Grupo_57742" data-name="Grupo 57742" transform="translate(10.289)">
              <path id="Trazado_103416" data-name="Trazado 103416" d="M555.855,246.533h2.236l-5.308,15.152h-2.235Z" transform="translate(-550.548 -246.533)" fill="#21214b"/>
            </g>
          </g>
          <g id="Grupo_57746" data-name="Grupo 57746" transform="translate(13.871 17.122)">
            <g id="Grupo_57744" data-name="Grupo 57744" transform="translate(17.225)">
              <path id="Trazado_103417" data-name="Trazado 103417" d="M533.869,115.767v2.559l-9.367,3.561v-2.46l6.553-2.381-6.553-2.4V112.2Z" transform="translate(-524.502 -112.205)" fill="#21214b"/>
            </g>
            <g id="Grupo_57745" data-name="Grupo 57745">
              <path id="Trazado_103418" data-name="Trazado 103418" d="M515.929,112.2v2.441l-6.554,2.4,6.554,2.381v2.46l-9.368-3.561v-2.559Z" transform="translate(-506.561 -112.205)" fill="#21214b"/>
            </g>
          </g>
        </g>
      </g>
      <g id="Grupo_57786" data-name="Grupo 57786" transform="translate(546.472 477.745)">
        <rect id="Rectángulo_7093" data-name="Rectángulo 7093" width="143.359" height="170.916" transform="translate(100.528 83.297)" fill="#4dd0e1" stroke="#21214b" stroke-width="3"/>
        <g id="Grupo_57780" data-name="Grupo 57780" transform="translate(207.485 235.319)">
          <g id="Grupo_57778" data-name="Grupo 57778" transform="translate(14.657 5.177)">
            <path id="Trazado_103448" data-name="Trazado 103448" d="M269.28,296.723v1.408l-5.155,1.96v-1.354l3.606-1.311-3.606-1.321v-1.343Z" transform="translate(-264.125 -294.763)" fill="#ffca28"/>
          </g>
          <g id="Grupo_57779" data-name="Grupo 57779" transform="translate(0 5.177)">
            <path id="Trazado_103449" data-name="Trazado 103449" d="M249.563,294.763v1.343l-3.606,1.321,3.606,1.311v1.354l-5.155-1.96v-1.408Z" transform="translate(-244.408 -294.763)" fill="#ffca28"/>
          </g>
          <text id="_" data-name="/" transform="translate(7.061 11)" fill="#ffca28" font-size="11" font-family="Montserrat-Bold, Montserrat" font-weight="700"><tspan x="0" y="0">/</tspan></text>
        </g>
        <g id="Grupo_57785" data-name="Grupo 57785" transform="translate(108.202 125.117)">
          <g id="Grupo_57784" data-name="Grupo 57784" transform="translate(17.11 0)">
            <rect id="Rectángulo_7095" data-name="Rectángulo 7095" width="42.14" height="7.717" fill="#1565c0"/>
            <rect id="Rectángulo_7096" data-name="Rectángulo 7096" width="21.07" height="7.717" transform="translate(48.077)" fill="#ffca28"/>
            <rect id="Rectángulo_7097" data-name="Rectángulo 7097" width="29.02" height="7.717" transform="translate(74.001)" fill="#fff"/>
            <rect id="Rectángulo_7098" data-name="Rectángulo 7098" width="19.667" height="7.717" transform="translate(0 13.778)" fill="#1565c0"/>
            <rect id="Rectángulo_7099" data-name="Rectángulo 7099" width="33.593" height="7.717" transform="translate(25.019 13.778)" fill="#ffca28"/>
            <rect id="Rectángulo_7100" data-name="Rectángulo 7100" width="38.934" height="7.717" transform="translate(64.087 13.778)" fill="#fff"/>
            <rect id="Rectángulo_7101" data-name="Rectángulo 7101" width="25.889" height="7.717" transform="translate(0 27.556)" fill="#1565c0"/>
            <rect id="Rectángulo_7102" data-name="Rectángulo 7102" width="48.701" height="7.717" transform="translate(30.103 27.556)" fill="#ffca28"/>
            <rect id="Rectángulo_7103" data-name="Rectángulo 7103" width="18.999" height="7.717" transform="translate(84.022 27.556)" fill="#fff"/>
            <rect id="Rectángulo_7104" data-name="Rectángulo 7104" width="32.645" height="7.717" transform="translate(0 41.333)" fill="#1565c0"/>
            <rect id="Rectángulo_7105" data-name="Rectángulo 7105" width="31.686" height="7.717" transform="translate(37.462 41.333)" fill="#ffca28"/>
            <rect id="Rectángulo_7106" data-name="Rectángulo 7106" width="29.02" height="7.717" transform="translate(74.001 41.333)" fill="#fff"/>
            <rect id="Rectángulo_7107" data-name="Rectángulo 7107" width="14.316" height="7.717" transform="translate(0 55.111)" fill="#1565c0"/>
            <rect id="Rectángulo_7108" data-name="Rectángulo 7108" width="28.364" height="7.717" transform="translate(19.132 55.111)" fill="#ffca28"/>
            <rect id="Rectángulo_7109" data-name="Rectángulo 7109" width="51.109" height="7.717" transform="translate(51.911 55.111)" fill="#fff"/>
            <rect id="Rectángulo_7110" data-name="Rectángulo 7110" width="40.94" height="7.717" transform="translate(0 68.889)" fill="#1565c0"/>
            <rect id="Rectángulo_7111" data-name="Rectángulo 7111" width="12.588" height="7.717" transform="translate(46.025 68.889)" fill="#ffca28"/>
            <rect id="Rectángulo_7112" data-name="Rectángulo 7112" width="38.934" height="7.717" transform="translate(64.087 68.889)" fill="#fff"/>
            <rect id="Rectángulo_7113" data-name="Rectángulo 7113" width="53.305" height="7.717" transform="translate(0 82.667)" fill="#1565c0"/>
            <rect id="Rectángulo_7114" data-name="Rectángulo 7114" width="21.808" height="7.717" transform="translate(57.798 82.667)" fill="#ffca28"/>
            <rect id="Rectángulo_7115" data-name="Rectángulo 7115" width="18.999" height="7.717" transform="translate(84.022 82.667)" fill="#fff"/>
            <rect id="Rectángulo_7116" data-name="Rectángulo 7116" width="16.323" height="7.717" transform="translate(0 96.444)" fill="#1565c0"/>
            <rect id="Rectángulo_7117" data-name="Rectángulo 7117" width="19.871" height="7.717" transform="translate(21.07 96.444)" fill="#ffca28"/>
            <rect id="Rectángulo_7118" data-name="Rectángulo 7118" width="56.996" height="7.717" transform="translate(46.025 96.444)" fill="#fff"/>
          </g>
          <circle id="Elipse_1546" data-name="Elipse 1546" cx="3.859" cy="3.859" r="3.859" transform="translate(0 0)" fill="#fff"/>
          <circle id="Elipse_1547" data-name="Elipse 1547" cx="3.859" cy="3.859" r="3.859" transform="translate(0 13.778)" fill="#fff"/>
          <circle id="Elipse_1548" data-name="Elipse 1548" cx="3.859" cy="3.859" r="3.859" transform="translate(0 27.556)" fill="#fff"/>
          <circle id="Elipse_1549" data-name="Elipse 1549" cx="3.859" cy="3.859" r="3.859" transform="translate(0 41.333)" fill="#fff"/>
          <circle id="Elipse_1550" data-name="Elipse 1550" cx="3.859" cy="3.859" r="3.859" transform="translate(0 55.111)" fill="#fff"/>
          <circle id="Elipse_1551" data-name="Elipse 1551" cx="3.859" cy="3.859" r="3.859" transform="translate(0 68.889)" fill="#fff"/>
          <circle id="Elipse_1552" data-name="Elipse 1552" cx="3.859" cy="3.859" r="3.859" transform="translate(0 82.667)" fill="#fff"/>
          <circle id="Elipse_1553" data-name="Elipse 1553" cx="3.859" cy="3.859" r="3.859" transform="translate(0 96.444)" fill="#fff"/>
        </g>
      </g>
      <g id="Grupo_57787" data-name="Grupo 57787" transform="translate(810 533.675)">
        <g id="Grupo_57747-2" data-name="Grupo 57747" transform="translate(0 27.367)">
          <rect id="Rectángulo_7017-2" data-name="Rectángulo 7017" width="86.976" height="170.916" fill="#4dd0e1" stroke="#21214b" stroke-width="3"/>
          <rect id="Rectángulo_7018-2" data-name="Rectángulo 7018" width="65.301" height="6.936" transform="translate(9.908 36.351)" fill="#fff"/>
          <rect id="Rectángulo_7019-2" data-name="Rectángulo 7019" width="43.22" height="6.936" transform="translate(9.908 51.708)" fill="#fff"/>
          <rect id="Rectángulo_7020-2" data-name="Rectángulo 7020" width="15.663" height="6.936" transform="translate(59.547 51.708)" fill="#ffca28"/>
          <rect id="Rectángulo_7021-2" data-name="Rectángulo 7021" width="40.467" height="6.936" transform="translate(34.743 67.066)" fill="#ffca28"/>
          <rect id="Rectángulo_7022-2" data-name="Rectángulo 7022" width="18.952" height="6.936" transform="translate(9.908 67.066)" fill="#fff"/>
          <rect id="Rectángulo_7023-2" data-name="Rectángulo 7023" width="34.518" height="6.936" transform="translate(9.908 82.424)" fill="#fff"/>
          <rect id="Rectángulo_7024-2" data-name="Rectángulo 7024" width="25.468" height="6.936" transform="translate(49.742 82.424)" fill="#ffca28"/>
          <rect id="Rectángulo_7025-2" data-name="Rectángulo 7025" width="46.35" height="6.936" transform="translate(28.86 97.781)" fill="#ffca28"/>
          <rect id="Rectángulo_7026-2" data-name="Rectángulo 7026" width="14.011" height="6.936" transform="translate(9.908 97.781)" fill="#fff"/>
          <rect id="Rectángulo_7027-2" data-name="Rectángulo 7027" width="28.022" height="6.936" transform="translate(9.908 113.139)" fill="#fff"/>
          <rect id="Rectángulo_7028-2" data-name="Rectángulo 7028" width="32.651" height="6.936" transform="translate(42.559 113.139)" fill="#ffca28"/>
          <g id="Grupo_57743-2" data-name="Grupo 57743" transform="translate(45.813 146.089)">
            <g id="Grupo_57740-2" data-name="Grupo 57740" transform="translate(20.32 5.261)">
              <path id="Trazado_103414-2" data-name="Trazado 103414" d="M568.144,254.731v1.952L561,259.4v-1.877l5-1.816-5-1.832v-1.863Z" transform="translate(-560.996 -252.013)" fill="#21214b"/>
            </g>
            <g id="Grupo_57741-2" data-name="Grupo 57741" transform="translate(0 5.261)">
              <path id="Trazado_103415-2" data-name="Trazado 103415" d="M546.979,252.013v1.863l-5,1.832,5,1.816V259.4l-7.148-2.718v-1.952Z" transform="translate(-539.831 -252.013)" fill="#21214b"/>
            </g>
            <g id="Grupo_57742-2" data-name="Grupo 57742" transform="translate(10.289)">
              <path id="Trazado_103416-2" data-name="Trazado 103416" d="M555.855,246.533h2.236l-5.308,15.152h-2.235Z" transform="translate(-550.548 -246.533)" fill="#21214b"/>
            </g>
          </g>
          <g id="Grupo_57746-2" data-name="Grupo 57746" transform="translate(13.871 17.122)">
            <g id="Grupo_57744-2" data-name="Grupo 57744" transform="translate(17.225)">
              <path id="Trazado_103417-2" data-name="Trazado 103417" d="M533.869,115.767v2.559l-9.367,3.561v-2.46l6.553-2.381-6.553-2.4V112.2Z" transform="translate(-524.502 -112.205)" fill="#21214b"/>
            </g>
            <g id="Grupo_57745-2" data-name="Grupo 57745">
              <path id="Trazado_103418-2" data-name="Trazado 103418" d="M515.929,112.2v2.441l-6.554,2.4,6.554,2.381v2.46l-9.368-3.561v-2.559Z" transform="translate(-506.561 -112.205)" fill="#21214b"/>
            </g>
          </g>
        </g>
      </g>
      <g id="Grupo_57788" data-name="Grupo 57788" transform="translate(816.471 477.745)">
        <path id="Trazado_103452" data-name="Trazado 103452" d="M0,0H143.359V170.916H0Z" transform="translate(100.528 83.297)" fill="#4dd0e1" stroke="#21214b" stroke-width="3"/>
        <g id="Grupo_57780-2" data-name="Grupo 57780" transform="translate(207.485 235.319)">
          <g id="Grupo_57778-2" data-name="Grupo 57778" transform="translate(14.657 5.177)">
            <path id="Trazado_103448-2" data-name="Trazado 103448" d="M269.28,296.723v1.408l-5.155,1.96v-1.354l3.606-1.311-3.606-1.321v-1.343Z" transform="translate(-264.125 -294.763)" fill="#21214b"/>
          </g>
          <g id="Grupo_57779-2" data-name="Grupo 57779" transform="translate(0 5.177)">
            <path id="Trazado_103449-2" data-name="Trazado 103449" d="M249.563,294.763v1.343l-3.606,1.321,3.606,1.311v1.354l-5.155-1.96v-1.408Z" transform="translate(-244.408 -294.763)" fill="#21214b"/>
          </g>
          <text id="_2" data-name="/" transform="translate(7.061 11)" fill="#21214b" font-size="11" font-family="Montserrat-Bold, Montserrat" font-weight="700"><tspan x="0" y="0">/</tspan></text>
        </g>
        <g id="Grupo_57783" data-name="Grupo 57783" transform="translate(116.247 108.048)">
          <g id="Grupo_57781" data-name="Grupo 57781" transform="translate(11.823)">
            <path id="Trazado_103450" data-name="Trazado 103450" d="M144.006,119.037v1.756l-6.429,2.444v-1.688l4.5-1.635-4.5-1.647v-1.675Z" transform="translate(-137.577 -116.592)" fill="#21214b"/>
          </g>
          <g id="Grupo_57782" data-name="Grupo 57782">
            <path id="Trazado_103451" data-name="Trazado 103451" d="M128.1,116.592v1.675l-4.5,1.647,4.5,1.635v1.688l-6.429-2.444v-1.756Z" transform="translate(-121.673 -116.592)" fill="#21214b"/>
          </g>
        </g>
        <g id="Grupo_57785-2" data-name="Grupo 57785" transform="translate(108.202 125.117)">
          <g id="Grupo_57784-2" data-name="Grupo 57784" transform="translate(17.11 0)">
            <rect id="Rectángulo_7095-2" data-name="Rectángulo 7095" width="42.14" height="7.717" fill="#1565c0"/>
            <rect id="Rectángulo_7096-2" data-name="Rectángulo 7096" width="21.07" height="7.717" transform="translate(48.077)" fill="#ffca28"/>
            <rect id="Rectángulo_7097-2" data-name="Rectángulo 7097" width="29.02" height="7.717" transform="translate(74.001)" fill="#fff"/>
            <rect id="Rectángulo_7098-2" data-name="Rectángulo 7098" width="19.667" height="7.717" transform="translate(0 13.778)" fill="#1565c0"/>
            <rect id="Rectángulo_7099-2" data-name="Rectángulo 7099" width="33.593" height="7.717" transform="translate(25.019 13.778)" fill="#ffca28"/>
            <rect id="Rectángulo_7100-2" data-name="Rectángulo 7100" width="38.934" height="7.717" transform="translate(64.087 13.778)" fill="#fff"/>
            <rect id="Rectángulo_7101-2" data-name="Rectángulo 7101" width="25.889" height="7.717" transform="translate(0 27.556)" fill="#1565c0"/>
            <rect id="Rectángulo_7102-2" data-name="Rectángulo 7102" width="48.701" height="7.717" transform="translate(30.103 27.556)" fill="#ffca28"/>
            <rect id="Rectángulo_7103-2" data-name="Rectángulo 7103" width="18.999" height="7.717" transform="translate(84.022 27.556)" fill="#fff"/>
            <rect id="Rectángulo_7104-2" data-name="Rectángulo 7104" width="32.645" height="7.717" transform="translate(0 41.333)" fill="#1565c0"/>
            <rect id="Rectángulo_7105-2" data-name="Rectángulo 7105" width="31.686" height="7.717" transform="translate(37.462 41.333)" fill="#ffca28"/>
            <rect id="Rectángulo_7106-2" data-name="Rectángulo 7106" width="29.02" height="7.717" transform="translate(74.001 41.333)" fill="#fff"/>
            <rect id="Rectángulo_7107-2" data-name="Rectángulo 7107" width="14.316" height="7.717" transform="translate(0 55.111)" fill="#1565c0"/>
            <rect id="Rectángulo_7108-2" data-name="Rectángulo 7108" width="28.364" height="7.717" transform="translate(19.132 55.111)" fill="#ffca28"/>
            <rect id="Rectángulo_7109-2" data-name="Rectángulo 7109" width="51.109" height="7.717" transform="translate(51.911 55.111)" fill="#fff"/>
            <rect id="Rectángulo_7110-2" data-name="Rectángulo 7110" width="40.94" height="7.717" transform="translate(0 68.889)" fill="#1565c0"/>
            <rect id="Rectángulo_7111-2" data-name="Rectángulo 7111" width="12.588" height="7.717" transform="translate(46.025 68.889)" fill="#ffca28"/>
            <rect id="Rectángulo_7112-2" data-name="Rectángulo 7112" width="38.934" height="7.717" transform="translate(64.087 68.889)" fill="#fff"/>
            <rect id="Rectángulo_7113-2" data-name="Rectángulo 7113" width="53.305" height="7.717" transform="translate(0 82.667)" fill="#1565c0"/>
            <rect id="Rectángulo_7114-2" data-name="Rectángulo 7114" width="21.808" height="7.717" transform="translate(57.798 82.667)" fill="#ffca28"/>
            <rect id="Rectángulo_7115-2" data-name="Rectángulo 7115" width="18.999" height="7.717" transform="translate(84.022 82.667)" fill="#fff"/>
            <rect id="Rectángulo_7116-2" data-name="Rectángulo 7116" width="16.323" height="7.717" transform="translate(0 96.444)" fill="#1565c0"/>
            <rect id="Rectángulo_7117-2" data-name="Rectángulo 7117" width="19.871" height="7.717" transform="translate(21.07 96.444)" fill="#ffca28"/>
            <rect id="Rectángulo_7118-2" data-name="Rectángulo 7118" width="56.996" height="7.717" transform="translate(46.025 96.444)" fill="#fff"/>
          </g>
          <circle id="Elipse_1546-2" data-name="Elipse 1546" cx="3.859" cy="3.859" r="3.859" transform="translate(0 0)" fill="#fff"/>
          <circle id="Elipse_1547-2" data-name="Elipse 1547" cx="3.859" cy="3.859" r="3.859" transform="translate(0 13.778)" fill="#fff"/>
          <circle id="Elipse_1548-2" data-name="Elipse 1548" cx="3.859" cy="3.859" r="3.859" transform="translate(0 27.556)" fill="#fff"/>
          <circle id="Elipse_1549-2" data-name="Elipse 1549" cx="3.859" cy="3.859" r="3.859" transform="translate(0 41.333)" fill="#fff"/>
          <circle id="Elipse_1550-2" data-name="Elipse 1550" cx="3.859" cy="3.859" r="3.859" transform="translate(0 55.111)" fill="#fff"/>
          <circle id="Elipse_1551-2" data-name="Elipse 1551" cx="3.859" cy="3.859" r="3.859" transform="translate(0 68.889)" fill="#fff"/>
          <circle id="Elipse_1552-2" data-name="Elipse 1552" cx="3.859" cy="3.859" r="3.859" transform="translate(0 82.667)" fill="#fff"/>
          <circle id="Elipse_1553-2" data-name="Elipse 1553" cx="3.859" cy="3.859" r="3.859" transform="translate(0 96.444)" fill="#fff"/>
        </g>
      </g>
    </g>
    <g id="Elipse_1555" data-name="Elipse 1555" transform="translate(578 581)" fill="#fff" stroke="#1565c0" stroke-width="2">
      <circle cx="6" cy="6" r="6" stroke="none"/>
      <circle cx="6" cy="6" r="5" fill="none"/>
    </g>
    <g id="Elipse_1556" data-name="Elipse 1556" transform="translate(980 581)" fill="#fff" stroke="#1565c0" stroke-width="2">
      <circle cx="6" cy="6" r="6" stroke="none"/>
      <circle cx="6" cy="6" r="5" fill="none"/>
    </g>
    <path id="Trazado_103454" data-name="Trazado 103454" d="M-10483-11107v5.307" transform="translate(11067 11700)" fill="none" stroke="#1565c0" stroke-width="2"/>
    <path id="Trazado_103455" data-name="Trazado 103455" d="M-10483-11107v5.307" transform="translate(11469 11700)" fill="none" stroke="#1565c0" stroke-width="2"/>
  </g>
</svg>
