<svg xmlns="http://www.w3.org/2000/svg" width="811.77" height="231.953" viewBox="0 0 811.77 231.953">
  <g id="Grupo_57879" data-name="Grupo 57879" transform="translate(10762.63 8675.107)">
    <path id="Trazado_103635" data-name="Trazado 103635" d="M797.192,280.047v48.092H7.525V280.047H797.192Z" transform="translate(-10762.63 -8915.077)" fill="#d0d7df"/>
    <path id="Trazado_103636" data-name="Trazado 103636" d="M480.429,424.323V464.4H432.337l40.076-40.076Z" transform="translate(-10762.63 -8915.077)" fill="#d9eef7"/>
    <path id="Trazado_103637" data-name="Trazado 103637" d="M797.192,328.139v96.184h-38.21l-7.025,9.954L726.692,464.4H147.626c-140.1,0-140.1-88.168-140.1-88.168V328.139H797.192Z" transform="translate(-10762.63 -8915.077)" fill="#a9ebf4"/>
    <path id="Trazado_103638" data-name="Trazado 103638" d="M87.678,376.231V328.139H7.525v48.092s0,88.168,88.168,88.168h80.154C87.678,464.4,87.678,376.231,87.678,376.231Z" transform="translate(-10762.63 -8915.077)" fill="#4dd0e1"/>
    <rect id="Rectángulo_7239" data-name="Rectángulo 7239" width="80.154" height="48.092" transform="translate(-10755.104 -8635.025)" fill="#a4b0c0"/>
    <g id="Grupo_57869" data-name="Grupo 57869" transform="translate(-10730.782 -8566.307)">
      <path id="Trazado_103640" data-name="Trazado 103640" d="M367.374,368.215a7.175,7.175,0,1,1-7.175,7.175A7.166,7.166,0,0,1,367.374,368.215Z" transform="translate(-281.275 -368.215)" fill="#d9eef7"/>
      <path id="Trazado_103641" data-name="Trazado 103641" d="M279.206,368.215a7.175,7.175,0,1,1-7.175,7.175A7.166,7.166,0,0,1,279.206,368.215Z" transform="translate(-219.415 -368.215)" fill="#d9eef7"/>
      <path id="Trazado_103642" data-name="Trazado 103642" d="M191.037,368.215a7.175,7.175,0,1,1-7.175,7.175A7.166,7.166,0,0,1,191.037,368.215Z" transform="translate(-157.554 -368.215)" fill="#d9eef7"/>
      <path id="Trazado_103643" data-name="Trazado 103643" d="M102.868,368.215a7.175,7.175,0,1,1-7.175,7.175A7.166,7.166,0,0,1,102.868,368.215Z" transform="translate(-95.693 -368.215)" fill="#d9eef7"/>
    </g>
    <g id="Grupo_57870" data-name="Grupo 57870" transform="translate(-10762.63 -8915.077)">
      <path id="Trazado_103644" data-name="Trazado 103644" d="M811.77,271.373H795.739L240.46,272.522H31.081V239.97H16.031v32.551H0V376.23a116.926,116.926,0,0,0,11.815,47.45C22.82,445.689,46.3,471.923,95.693,471.923h120.23v-15.05H95.693c-79.435,0-80.631-77.363-80.643-80.643V335.663l757.134-1.149v-15.05L15.05,320.613V287.571l781.67-1.149V415.648H769.067l-40.076,40.076-489.022,1.149v15.05l547.755-1.149V430.7H811.77Zm-31.081,0L255.51,272.522l525.178-1.149ZM750.274,455.725l22.4-22.4v22.4Z" fill="#21214b"/>
    </g>
    <g id="Grupo_57871" data-name="Grupo 57871" transform="translate(-10733.027 -8568.551)">
      <path id="Trazado_103645" data-name="Trazado 103645" d="M88.168,370.11a9.42,9.42,0,1,0,9.42-9.42A9.431,9.431,0,0,0,88.168,370.11Zm14.35,0a4.93,4.93,0,1,1-4.93-4.93A4.935,4.935,0,0,1,102.518,370.11Z" transform="translate(-88.168 -360.69)" fill="#231f20"/>
      <path id="Trazado_103646" data-name="Trazado 103646" d="M185.758,360.69a9.42,9.42,0,1,0,9.42,9.42A9.431,9.431,0,0,0,185.758,360.69Zm0,14.35a4.93,4.93,0,1,1,4.93-4.93A4.936,4.936,0,0,1,185.758,375.04Z" transform="translate(-150.029 -360.69)" fill="#231f20"/>
      <path id="Trazado_103647" data-name="Trazado 103647" d="M283.347,370.11a9.42,9.42,0,1,0-9.42,9.42A9.431,9.431,0,0,0,283.347,370.11Zm-14.35,0a4.93,4.93,0,1,1,4.93,4.93A4.935,4.935,0,0,1,269,370.11Z" transform="translate(-211.89 -360.69)" fill="#231f20"/>
      <path id="Trazado_103648" data-name="Trazado 103648" d="M371.515,370.11a9.42,9.42,0,1,0-9.421,9.42A9.431,9.431,0,0,0,371.515,370.11Zm-14.35,0a4.93,4.93,0,1,1,4.93,4.93A4.935,4.935,0,0,1,357.165,370.11Z" transform="translate(-273.75 -360.69)" fill="#231f20"/>
    </g>
  </g>
</svg>
